<svg version="1.1" id="Layer_1" xmlns="http://www.w3.org/2000/svg" xmlns:xlink="http://www.w3.org/1999/xlink" x="0px"
     y="0px" enable-background="new 0 0 1792 2400" xml:space="default" viewBox="127.26 619.79 1555 1183.41">
    <path fill="#030303" opacity="1.000000" stroke="none"
          d=" M600.432922,1080.488037  	C594.701904,1112.124268 589.769226,1143.120605 577.924438,1172.280029  	C573.074280,1184.220337 567.040039,1195.898071 559.923035,1206.618774  	C555.496704,1213.286377 548.763611,1219.204834 541.781372,1223.233032  	C526.494629,1232.052002 508.666473,1229.213257 495.580231,1217.250610  	C482.029358,1204.863159 472.662964,1189.508057 466.057068,1172.623901  	C457.455200,1150.638306 450.006927,1128.201660 441.428040,1106.206543  	C425.329010,1064.930420 407.099945,1024.671997 383.604736,986.932800  	C359.372345,948.009705 329.181000,914.747131 292.441956,887.222778  	C282.938873,880.103271 274.054657,871.678894 266.519226,862.511475  	C250.869858,843.472778 247.016571,821.254883 256.849762,798.719971  	C270.416809,767.627930 294.510437,747.699036 327.759338,739.637878  	C354.616943,733.126343 379.463470,747.842407 392.533813,768.826721  	C404.627167,788.242371 412.194397,809.512634 418.073761,831.427612  	C426.859406,864.175720 435.036102,897.090210 444.102844,929.758850  	C451.848938,957.669006 460.635986,985.316833 475.192841,1010.598267  	C480.980560,1020.650024 487.118286,1030.757324 494.666779,1039.480713  	C507.491364,1054.301514 517.116516,1052.076782 524.371582,1033.732178  	C529.072388,1021.846252 531.841431,1009.365845 531.734436,996.696716  	C531.554626,975.404053 531.008972,954.053589 529.180908,932.851257  	C526.922485,906.657654 523.338745,880.572754 520.052673,854.475525  	C518.016113,838.300720 515.081726,822.234436 513.235229,806.041382  	C509.864471,776.481445 508.770599,746.748291 514.259216,717.411926  	C519.690186,688.383728 531.233215,662.282043 555.081116,642.835266  	C588.204163,615.825134 640.081421,611.923584 674.836731,634.506836  	C699.224182,650.353333 709.716492,678.063232 702.046448,705.858582  	C699.346252,715.643921 693.880493,723.303284 685.387512,728.686462  	C681.475586,731.166016 677.303833,733.349121 673.021790,735.112976  	C643.443848,747.296936 625.315674,768.982361 617.635010,800.002258  	C611.024780,826.699524 608.219177,853.789551 608.208862,881.165649  	C608.198547,908.479187 609.656311,935.806396 609.158142,963.103638  	C608.446899,1002.070984 606.720337,1041.030029 600.432922,1080.488037  z"></path>
  </svg>